<svg width="17" height="22" viewBox="0 0 17 22" fill="none" xmlns="http://www.w3.org/2000/svg">
<path d="M14.2783 8.2287C14.2783 6.62507 13.674 5.08711 12.5984 3.95317C11.5229 2.81923 10.0641 2.18219 8.54297 2.18219C7.02187 2.18219 5.56308 2.81923 4.4875 3.95317C3.41193 5.08711 2.80767 6.62507 2.80767 8.2287V16.2907H14.2783V8.2287ZM16.19 16.9629L16.5724 17.5C16.6256 17.5749 16.6581 17.6639 16.666 17.7571C16.674 17.8503 16.6572 17.944 16.6175 18.0277C16.5778 18.1114 16.5168 18.1818 16.4413 18.231C16.3658 18.2802 16.2788 18.3062 16.19 18.3062H0.89591C0.807151 18.3062 0.720145 18.2802 0.644642 18.231C0.569138 18.1818 0.508121 18.1114 0.468427 18.0277C0.428732 17.944 0.411929 17.8503 0.4199 17.7571C0.427871 17.6639 0.460301 17.5749 0.513557 17.5L0.89591 16.9629V8.2287C0.89591 6.09052 1.70158 4.03992 3.13568 2.528C4.56978 1.01608 6.51484 0.166687 8.54297 0.166687C10.5711 0.166687 12.5162 1.01608 13.9503 2.528C15.3844 4.03992 16.19 6.09052 16.19 8.2287V16.9629ZM6.15326 19.314H10.9327C10.9327 19.9822 10.6809 20.623 10.2327 21.0954C9.78459 21.5679 9.17676 21.8334 8.54297 21.8334C7.90918 21.8334 7.30135 21.5679 6.85319 21.0954C6.40504 20.623 6.15326 19.9822 6.15326 19.314Z" fill="#7D7D7D"/>
</svg>
