<svg width="32" height="32" viewBox="0 0 32 32" fill="none" xmlns="http://www.w3.org/2000/svg">
<g clip-path="url(#clip0)">
<path d="M29.0572 24.9381C28.5733 26.0561 28.0005 27.0852 27.3368 28.0313C26.4321 29.3212 25.6914 30.214 25.1206 30.7098C24.2357 31.5236 23.2876 31.9404 22.2723 31.9641C21.5434 31.9641 20.6644 31.7567 19.6413 31.3359C18.6147 30.9172 17.6713 30.7098 16.8088 30.7098C15.9041 30.7098 14.9338 30.9172 13.8961 31.3359C12.8567 31.7567 12.0194 31.9759 11.3792 31.9976C10.4056 32.0391 9.43516 31.6105 8.4665 30.7098C7.84825 30.1705 7.07494 29.2461 6.14855 27.9365C5.15461 26.538 4.33745 24.9164 3.69727 23.0675C3.01166 21.0706 2.66797 19.1368 2.66797 17.2646C2.66797 15.1201 3.13136 13.2705 4.05953 11.7205C4.78899 10.4755 5.75943 9.49342 6.974 8.77245C8.18858 8.05149 9.50094 7.68409 10.9142 7.66058C11.6875 7.66058 12.7016 7.89979 13.9618 8.3699C15.2185 8.84159 16.0254 9.08079 16.3791 9.08079C16.6436 9.08079 17.54 8.80109 19.0595 8.24348C20.4965 7.72636 21.7093 7.51224 22.7029 7.59659C25.3951 7.81386 27.4178 8.87517 28.7629 10.7872C26.3551 12.2461 25.164 14.2895 25.1877 16.9109C25.2095 18.9527 25.9502 20.6518 27.4059 22.0009C28.0657 22.627 28.8024 23.111 29.6222 23.4547C29.4444 23.9702 29.2568 24.464 29.0572 24.9381ZM22.8826 0.640549C22.8826 2.24091 22.298 3.73517 21.1326 5.11824C19.7262 6.76244 18.0251 7.71253 16.1804 7.56261C16.1569 7.37062 16.1433 7.16855 16.1433 6.95621C16.1433 5.41986 16.8121 3.77566 17.9998 2.43131C18.5928 1.75064 19.3469 1.18467 20.2615 0.733187C21.174 0.28844 22.0372 0.0424849 22.8491 0.000366211C22.8728 0.21431 22.8826 0.428268 22.8826 0.640528V0.640549Z" fill="black"/>
</g>
<defs>
<clipPath id="clip0">
<rect width="32" height="32" fill="white"/>
</clipPath>
</defs>
</svg>
