<svg width="17" height="22" viewBox="0 0 17 22" fill="none" xmlns="http://www.w3.org/2000/svg">
<path d="M13.8603 8.06202C13.8603 6.45838 13.256 4.92043 12.1805 3.78649C11.1049 2.65255 9.64609 2.0155 8.125 2.0155C6.60391 2.0155 5.14511 2.65255 4.06953 3.78649C2.99396 4.92043 2.38971 6.45838 2.38971 8.06202V16.124H13.8603V8.06202ZM15.7721 16.7962L16.1544 17.3333C16.2077 17.4082 16.2401 17.4972 16.2481 17.5904C16.256 17.6836 16.2392 17.7773 16.1995 17.861C16.1598 17.9447 16.0988 18.0151 16.0233 18.0643C15.9478 18.1135 15.8608 18.1395 15.7721 18.1395H0.477941C0.389182 18.1395 0.302176 18.1135 0.226673 18.0643C0.15117 18.0151 0.0901522 17.9447 0.0504578 17.861C0.0107634 17.7773 -0.00603965 17.6836 0.00193144 17.5904C0.00990253 17.4972 0.0423327 17.4082 0.0955884 17.3333L0.477941 16.7962V8.06202C0.477941 5.92384 1.28361 3.87323 2.71771 2.36131C4.15181 0.849389 6.09687 0 8.125 0C10.1531 0 12.0982 0.849389 13.5323 2.36131C14.9664 3.87323 15.7721 5.92384 15.7721 8.06202V16.7962ZM5.73529 19.1473H10.5147C10.5147 19.8155 10.2629 20.4563 9.81478 20.9288C9.36662 21.4012 8.75879 21.6667 8.125 21.6667C7.49121 21.6667 6.88338 21.4012 6.43522 20.9288C5.98707 20.4563 5.73529 19.8155 5.73529 19.1473Z" fill="black"/>
</svg>
