<svg width="18" height="22" viewBox="0 0 18 22" fill="none" xmlns="http://www.w3.org/2000/svg">
<path d="M2.25796 6.66663V19.6666H15.7394V6.66663H2.25796ZM2.25796 4.49996H15.7394V2.33329H2.25796V4.49996ZM16.7024 21.8333H1.29499C1.0396 21.8333 0.794667 21.7192 0.614076 21.516C0.433486 21.3128 0.332031 21.0373 0.332031 20.75V1.24996C0.332031 0.962641 0.433486 0.687091 0.614076 0.483927C0.794667 0.280763 1.0396 0.166626 1.29499 0.166626H16.7024C16.9578 0.166626 17.2027 0.280763 17.3833 0.483927C17.5639 0.687091 17.6654 0.962641 17.6654 1.24996V20.75C17.6654 21.0373 17.5639 21.3128 17.3833 21.516C17.2027 21.7192 16.9578 21.8333 16.7024 21.8333ZM4.18388 12.0833H13.8135V14.25H4.18388V12.0833ZM4.18388 15.3333H13.8135V17.5H4.18388V15.3333ZM4.18388 8.83329H13.8135V11H4.18388V8.83329Z" fill="#7D7D7D"/>
</svg>
