<svg width="32" height="32" viewBox="0 0 32 32" fill="none" xmlns="http://www.w3.org/2000/svg">
<g clip-path="url(#clip0)">
<path d="M31.6883 16.3686C31.6883 15.2809 31.6002 14.1874 31.412 13.1174H16.3203V19.2787H24.9626C24.604 21.2659 23.4517 23.0237 21.7644 24.1408V28.1386H26.9204C29.9481 25.3519 31.6883 21.2365 31.6883 16.3686Z" fill="#4285F4"/>
<path d="M16.3214 32.0011C20.6367 32.0011 24.2759 30.5842 26.9274 28.1385L21.7714 24.1407C20.3369 25.1166 18.485 25.6693 16.3273 25.6693C12.1531 25.6693 8.61392 22.8532 7.34403 19.067H2.02344V23.1883C4.73959 28.5912 10.2718 32.0011 16.3214 32.0011Z" fill="#34A853"/>
<path d="M7.33703 19.067C6.66681 17.0799 6.66681 14.9281 7.33703 12.941V8.8197H2.02231C-0.247022 13.3407 -0.247022 18.6672 2.02231 23.1882L7.33703 19.067Z" fill="#FBBC04"/>
<path d="M16.3214 6.33288C18.6025 6.29761 20.8072 7.15596 22.4592 8.73156L27.0273 4.16349C24.1348 1.44734 20.2957 -0.0459547 16.3214 0.00107822C10.2718 0.00107822 4.73959 3.41096 2.02344 8.81974L7.33815 12.941C8.60216 9.14897 12.1473 6.33288 16.3214 6.33288Z" fill="#EA4335"/>
</g>
<defs>
<clipPath id="clip0">
<rect width="32" height="32" fill="white"/>
</clipPath>
</defs>
</svg>
