<svg width="20" height="22" viewBox="0 0 20 22" fill="none" xmlns="http://www.w3.org/2000/svg">
<path d="M18.0838 14.2001L19.2858 14.9211C19.36 14.9655 19.4214 15.0283 19.464 15.1035C19.5066 15.1787 19.529 15.2636 19.529 15.3501C19.529 15.4365 19.5066 15.5214 19.464 15.5966C19.4214 15.6718 19.36 15.7347 19.2858 15.7791L10.5158 21.0411C10.3603 21.1345 10.1823 21.1839 10.0008 21.1839C9.81939 21.1839 9.64136 21.1345 9.48583 21.0411L0.715831 15.7791C0.641678 15.7347 0.580297 15.6718 0.537678 15.5966C0.495059 15.5214 0.472656 15.4365 0.472656 15.3501C0.472656 15.2636 0.495059 15.1787 0.537678 15.1035C0.580297 15.0283 0.641678 14.9655 0.715831 14.9211L1.91783 14.2001L10.0008 19.0501L18.0838 14.2001ZM18.0838 9.50007L19.2858 10.2211C19.36 10.2655 19.4214 10.3283 19.464 10.4035C19.5066 10.4787 19.529 10.5636 19.529 10.6501C19.529 10.7365 19.5066 10.8214 19.464 10.8966C19.4214 10.9718 19.36 11.0347 19.2858 11.0791L10.0008 16.6501L0.715831 11.0791C0.641678 11.0347 0.580297 10.9718 0.537678 10.8966C0.495059 10.8214 0.472656 10.7365 0.472656 10.6501C0.472656 10.5636 0.495059 10.4787 0.537678 10.4035C0.580297 10.3283 0.641678 10.2655 0.715831 10.2211L1.91783 9.50007L10.0008 14.3501L18.0838 9.50007ZM10.5148 0.30907L19.2858 5.57107C19.36 5.61546 19.4214 5.67832 19.464 5.75351C19.5066 5.82869 19.529 5.91364 19.529 6.00007C19.529 6.0865 19.5066 6.17145 19.464 6.24663C19.4214 6.32182 19.36 6.38468 19.2858 6.42907L10.0008 12.0001L0.715831 6.42907C0.641678 6.38468 0.580297 6.32182 0.537678 6.24663C0.495059 6.17145 0.472656 6.0865 0.472656 6.00007C0.472656 5.91364 0.495059 5.82869 0.537678 5.75351C0.580297 5.67832 0.641678 5.61546 0.715831 5.57107L9.48583 0.30907C9.64136 0.215626 9.81939 0.16626 10.0008 0.16626C10.1823 0.16626 10.3603 0.215626 10.5158 0.30907H10.5148ZM10.0008 2.33207L3.88783 6.00007L10.0008 9.66807L16.1138 6.00007L10.0008 2.33207Z" fill="#7D7D7D"/>
</svg>
