<svg width="16" height="17" viewBox="0 0 16 17" fill="none" xmlns="http://www.w3.org/2000/svg">
<path d="M12.6266 12.3783L16 15.8359L14.8855 16.9785L11.5128 13.5201C10.2579 14.5514 8.69706 15.1123 7.08871 15.11C3.17574 15.11 0 11.8542 0 7.8426C0 3.83099 3.17574 0.575195 7.08871 0.575195C11.0017 0.575195 14.1774 3.83099 14.1774 7.8426C14.1797 9.49149 13.6325 11.0917 12.6266 12.3783ZM11.0466 11.7791C12.0462 10.7252 12.6044 9.31258 12.6021 7.8426C12.6021 4.71923 10.1345 2.19017 7.08871 2.19017C4.04214 2.19017 1.57527 4.71923 1.57527 7.8426C1.57527 10.9652 4.04214 13.495 7.08871 13.495C8.52254 13.4973 9.90047 12.925 10.9284 11.9002L11.0466 11.7791Z" fill="#7D7D7D"/>
</svg>
