<svg width="14" height="18" viewBox="0 0 14 18" fill="none" xmlns="http://www.w3.org/2000/svg">
<path d="M13.6654 17.833H0.332031V16.1663C0.332031 15.0613 0.771018 14.0015 1.55242 13.2201C2.33382 12.4387 3.39363 11.9997 4.4987 11.9997H9.4987C10.6038 11.9997 11.6636 12.4387 12.445 13.2201C13.2264 14.0015 13.6654 15.0613 13.6654 16.1663V17.833ZM6.9987 10.333C6.34209 10.333 5.69191 10.2037 5.08528 9.95241C4.47865 9.70113 3.92746 9.33284 3.46316 8.86854C2.99887 8.40425 2.63057 7.85305 2.3793 7.24643C2.12803 6.6398 1.9987 5.98962 1.9987 5.33301C1.9987 4.6764 2.12803 4.02622 2.3793 3.41959C2.63057 2.81296 2.99887 2.26177 3.46316 1.79747C3.92746 1.33318 4.47865 0.964884 5.08528 0.71361C5.69191 0.462337 6.34209 0.333008 6.9987 0.333008C8.32478 0.333008 9.59655 0.859792 10.5342 1.79747C11.4719 2.73516 11.9987 4.00693 11.9987 5.33301C11.9987 6.65909 11.4719 7.93086 10.5342 8.86854C9.59655 9.80622 8.32478 10.333 6.9987 10.333Z" fill="#DDDDDD"/>
</svg>
